<svg width="131" height="90" viewBox="0 0 131 90" fill="none" xmlns="http://www.w3.org/2000/svg">
<circle cx="45" cy="45" r="45" fill="#353535"/>
<circle cx="86" cy="45" r="45" fill="#FAFF00"/>
<path d="M86.4856 61.7392C86.7973 61.9112 87.1483 61.9992 87.5042 61.9949C87.8601 61.9905 88.2088 61.8938 88.5162 61.7143C92.771 59.2823 100.166 53.6844 103.069 46.4134C107.332 36.9454 97.3239 29.3882 90.4079 34.8234C89.6859 35.391 88.7786 36.0405 88.154 36.6545C87.8726 36.9324 87.375 36.9609 87.0817 36.6949C86.2611 35.9467 84.9786 34.9896 84.1545 34.4327C78.2586 30.4427 67.5295 35.7021 72.1061 46.9252C73.7829 51.9625 81.7724 59.1089 86.4856 61.7404V61.7392Z" fill="#151515"/>
</svg>
