<svg width="390" height="384" viewBox="0 0 390 384" fill="none" xmlns="http://www.w3.org/2000/svg">
<g clip-path="url(#clip0_11_1991)">
<rect x="69.9995" y="40" width="250" height="456" rx="36.9149" fill="#151515"/>
<path d="M154 36H235V48.5106C235 54.856 229.856 60 223.511 60H165.489C159.144 60 154 54.856 154 48.5106V36Z" fill="#48484A"/>
<path d="M264.5 231.5L289.5 206.5" stroke="black" stroke-width="5"/>
<rect x="69.9995" y="40" width="250" height="456" rx="36.9149" stroke="#48484A" stroke-width="10"/>
<rect x="65" y="128" width="260" height="256" fill="url(#paint0_linear_11_1991)"/>
<rect x="93" y="90" width="42" height="42" rx="7" fill="#48484A"/>
<rect x="93" y="144" width="42" height="42" rx="7" fill="#48484A"/>
<rect x="93" y="198" width="42" height="42" rx="7" fill="#48484A"/>
<rect x="201" y="198" width="42" height="42" rx="7" fill="#48484A"/>
<rect x="93" y="252" width="42" height="42" rx="7" fill="#48484A"/>
<rect x="147.128" y="90" width="42" height="42" rx="7" fill="#48484A"/>
<rect x="147.128" y="144" width="42" height="42" rx="7" fill="#48484A"/>
<rect x="147.128" y="198" width="42" height="42" rx="7" fill="#48484A"/>
<rect x="255.128" y="198" width="42" height="42" rx="7" fill="#48484A"/>
<path d="M267 228L285 210" stroke="#ED4C42" stroke-width="6" stroke-linecap="round" stroke-linejoin="round"/>
<path d="M213 228L231 210" stroke="#ED4C42" stroke-width="6" stroke-linecap="round" stroke-linejoin="round"/>
<path d="M159 228L177 210" stroke="#ED4C42" stroke-width="6" stroke-linecap="round" stroke-linejoin="round"/>
<path d="M105 228L123 210" stroke="#ED4C42" stroke-width="6" stroke-linecap="round" stroke-linejoin="round"/>
<path d="M105 282L123 264" stroke="#ED4C42" stroke-width="6" stroke-linecap="round" stroke-linejoin="round"/>
<path d="M285 228L267 210" stroke="#ED4C42" stroke-width="6" stroke-linecap="round" stroke-linejoin="round"/>
<path d="M231 228L213 210" stroke="#ED4C42" stroke-width="6" stroke-linecap="round" stroke-linejoin="round"/>
<path d="M177 228L159 210" stroke="#ED4C42" stroke-width="6" stroke-linecap="round" stroke-linejoin="round"/>
<path d="M123 228L105 210" stroke="#ED4C42" stroke-width="6" stroke-linecap="round" stroke-linejoin="round"/>
<path d="M123 282L105 264" stroke="#ED4C42" stroke-width="6" stroke-linecap="round" stroke-linejoin="round"/>
<rect x="201.256" y="90" width="42" height="42" rx="7" fill="#48484A"/>
<rect x="201.256" y="144" width="42" height="42" rx="7" fill="#48484A"/>
<path d="M220.856 180.676C221.168 180.848 221.519 180.936 221.875 180.932C222.231 180.927 222.58 180.831 222.887 180.651C227.142 178.219 234.536 172.621 237.44 165.35C241.703 155.882 231.695 148.325 224.779 153.76C224.057 154.328 223.149 154.977 222.525 155.591C222.243 155.869 221.746 155.898 221.453 155.632C220.632 154.884 219.349 153.926 218.525 153.37C212.629 149.38 201.9 154.639 206.477 165.862C208.154 170.899 216.143 178.046 220.856 180.677V180.676Z" fill="url(#paint1_radial_11_1991)"/>
<path d="M220.856 180.676C221.168 180.848 221.519 180.936 221.875 180.932C222.231 180.927 222.58 180.831 222.887 180.651C227.142 178.219 234.536 172.621 237.44 165.35C241.703 155.882 231.695 148.325 224.779 153.76C224.057 154.328 223.149 154.977 222.525 155.591C222.243 155.869 221.746 155.898 221.453 155.632C220.632 154.884 219.349 153.926 218.525 153.37C212.629 149.38 201.9 154.639 206.477 165.862C208.154 170.899 216.143 178.046 220.856 180.677V180.676Z" fill="url(#paint2_radial_11_1991)"/>
<path d="M220.856 180.676C221.168 180.848 221.519 180.936 221.875 180.932C222.231 180.927 222.58 180.831 222.887 180.651C227.142 178.219 234.536 172.621 237.44 165.35C241.703 155.882 231.695 148.325 224.779 153.76C224.057 154.328 223.149 154.977 222.525 155.591C222.243 155.869 221.746 155.898 221.453 155.632C220.632 154.884 219.349 153.926 218.525 153.37C212.629 149.38 201.9 154.639 206.477 165.862C208.154 170.899 216.143 178.046 220.856 180.677V180.676Z" fill="url(#paint3_linear_11_1991)"/>
<path d="M220.856 180.676C221.168 180.848 221.519 180.936 221.875 180.932C222.231 180.927 222.58 180.831 222.887 180.651C227.142 178.219 234.536 172.621 237.44 165.35C241.703 155.882 231.695 148.325 224.779 153.76C224.057 154.328 223.149 154.977 222.525 155.591C222.243 155.869 221.746 155.898 221.453 155.632C220.632 154.884 219.349 153.926 218.525 153.37C212.629 149.38 201.9 154.639 206.477 165.862C208.154 170.899 216.143 178.046 220.856 180.677V180.676Z" fill="url(#paint4_radial_11_1991)"/>
<path d="M220.856 180.676C221.168 180.848 221.519 180.936 221.875 180.932C222.231 180.927 222.58 180.831 222.887 180.651C227.142 178.219 234.536 172.621 237.44 165.35C241.703 155.882 231.695 148.325 224.779 153.76C224.057 154.328 223.149 154.977 222.525 155.591C222.243 155.869 221.746 155.898 221.453 155.632C220.632 154.884 219.349 153.926 218.525 153.37C212.629 149.38 201.9 154.639 206.477 165.862C208.154 170.899 216.143 178.046 220.856 180.677V180.676Z" fill="url(#paint5_radial_11_1991)"/>
<path d="M220.856 180.676C221.168 180.848 221.519 180.936 221.875 180.932C222.231 180.927 222.58 180.831 222.887 180.651C227.142 178.219 234.536 172.621 237.44 165.35C241.703 155.882 231.695 148.325 224.779 153.76C224.057 154.328 223.149 154.977 222.525 155.591C222.243 155.869 221.746 155.898 221.453 155.632C220.632 154.884 219.349 153.926 218.525 153.37C212.629 149.38 201.9 154.639 206.477 165.862C208.154 170.899 216.143 178.046 220.856 180.677V180.676Z" fill="url(#paint6_radial_11_1991)"/>
<path d="M220.856 180.676C221.168 180.848 221.519 180.936 221.875 180.932C222.231 180.927 222.58 180.831 222.887 180.651C227.142 178.219 234.536 172.621 237.44 165.35C241.703 155.882 231.695 148.325 224.779 153.76C224.057 154.328 223.149 154.977 222.525 155.591C222.243 155.869 221.746 155.898 221.453 155.632C220.632 154.884 219.349 153.926 218.525 153.37C212.629 149.38 201.9 154.639 206.477 165.862C208.154 170.899 216.143 178.046 220.856 180.677V180.676Z" fill="url(#paint7_radial_11_1991)"/>
<path d="M220.856 180.676C221.168 180.848 221.519 180.936 221.875 180.932C222.231 180.927 222.58 180.831 222.887 180.651C227.142 178.219 234.536 172.621 237.44 165.35C241.703 155.882 231.695 148.325 224.779 153.76C224.057 154.328 223.149 154.977 222.525 155.591C222.243 155.869 221.746 155.898 221.453 155.632C220.632 154.884 219.349 153.926 218.525 153.37C212.629 149.38 201.9 154.639 206.477 165.862C208.154 170.899 216.143 178.046 220.856 180.677V180.676Z" fill="url(#paint8_radial_11_1991)"/>
<path d="M220.856 180.676C221.168 180.848 221.519 180.936 221.875 180.932C222.231 180.927 222.58 180.831 222.887 180.651C227.142 178.219 234.536 172.621 237.44 165.35C241.703 155.882 231.695 148.325 224.779 153.76C224.057 154.328 223.149 154.977 222.525 155.591C222.243 155.869 221.746 155.898 221.453 155.632C220.632 154.884 219.349 153.926 218.525 153.37C212.629 149.38 201.9 154.639 206.477 165.862C208.154 170.899 216.143 178.046 220.856 180.677V180.676Z" fill="url(#paint9_linear_11_1991)" fill-opacity="0.25"/>
<path d="M221.448 155.627L221.453 155.632C221.746 155.898 222.243 155.869 222.525 155.591C222.995 155.13 223.623 154.649 224.214 154.196C224.408 154.048 224.599 153.902 224.779 153.762C231.695 148.325 241.702 155.882 237.44 165.35C236.85 166.804 236.108 168.191 235.228 169.489L221.448 155.627Z" fill="url(#paint10_radial_11_1991)"/>
<path d="M221.448 155.627L221.453 155.632C221.746 155.898 222.243 155.869 222.525 155.591C222.995 155.13 223.623 154.649 224.214 154.196C224.408 154.048 224.599 153.902 224.779 153.762C231.695 148.325 241.702 155.882 237.44 165.35C236.85 166.804 236.108 168.191 235.228 169.489L221.448 155.627Z" fill="url(#paint11_radial_11_1991)"/>
<g filter="url(#filter0_f_11_1991)">
<path d="M222.197 158.443V168.915C222.197 170.148 223.86 170.572 224.413 169.471C226.138 166.041 227.575 162.258 226.406 159.584C225.425 157.343 223.965 157.098 222.823 157.474C222.419 157.607 222.197 158.017 222.197 158.443Z" fill="url(#paint12_radial_11_1991)"/>
</g>
<g filter="url(#filter1_f_11_1991)">
<path d="M214.003 153.764C215 153.752 215.805 153.61 215.803 153.446C215.801 153.283 214.992 153.16 213.996 153.173C213 153.185 212.194 153.327 212.196 153.49C212.198 153.653 213.007 153.776 214.003 153.764Z" fill="url(#paint13_radial_11_1991)"/>
</g>
<g filter="url(#filter2_f_11_1991)">
<path d="M220.415 157.06L220.786 172.573C212.62 164.631 210.436 155.343 213.565 154.092C216.693 152.841 219.523 155.205 220.413 157.06H220.415Z" fill="url(#paint14_radial_11_1991)"/>
</g>
<g filter="url(#filter3_f_11_1991)">
<path d="M230.569 167.597C234.063 167.597 236.895 164.545 236.895 160.781C236.895 157.016 234.063 153.964 230.569 153.964C227.075 153.964 224.243 157.016 224.243 160.781C224.243 164.545 227.075 167.597 230.569 167.597Z" fill="url(#paint15_radial_11_1991)"/>
</g>
<g filter="url(#filter4_f_11_1991)">
<path d="M234.867 163.963C233.604 167.006 228.409 173.388 224.698 175.838" stroke="#FFC037" stroke-width="1.1875" stroke-linecap="round"/>
</g>
<g filter="url(#filter5_f_11_1991)">
<path d="M208.37 161.737C209.781 168.268 216.832 173.685 220.542 176.135" stroke="#FAA730" stroke-width="1.1875" stroke-linecap="round"/>
</g>
<rect x="255.384" y="90" width="42" height="42" rx="7" fill="#48484A"/>
<rect x="255.384" y="144" width="42" height="42" rx="7" fill="#48484A"/>
<path d="M267 174L285 156" stroke="#ED4C42" stroke-width="6" stroke-linecap="round" stroke-linejoin="round"/>
<path d="M267 120L285 102" stroke="#ED4C42" stroke-width="6" stroke-linecap="round" stroke-linejoin="round"/>
<path d="M213 120L231 102" stroke="#ED4C42" stroke-width="6" stroke-linecap="round" stroke-linejoin="round"/>
<path d="M159 174L177 156" stroke="#ED4C42" stroke-width="6" stroke-linecap="round" stroke-linejoin="round"/>
<path d="M159 120L177 102" stroke="#ED4C42" stroke-width="6" stroke-linecap="round" stroke-linejoin="round"/>
<path d="M105 174L123 156" stroke="#ED4C42" stroke-width="6" stroke-linecap="round" stroke-linejoin="round"/>
<path d="M105 120L123 102" stroke="#ED4C42" stroke-width="6" stroke-linecap="round" stroke-linejoin="round"/>
<path d="M285 174L267 156" stroke="#ED4C42" stroke-width="6" stroke-linecap="round" stroke-linejoin="round"/>
<path d="M285 120L267 102" stroke="#ED4C42" stroke-width="6" stroke-linecap="round" stroke-linejoin="round"/>
<path d="M231 120L213 102" stroke="#ED4C42" stroke-width="6" stroke-linecap="round" stroke-linejoin="round"/>
<path d="M177 174L159 156" stroke="#ED4C42" stroke-width="6" stroke-linecap="round" stroke-linejoin="round"/>
<path d="M177 120L159 102" stroke="#ED4C42" stroke-width="6" stroke-linecap="round" stroke-linejoin="round"/>
<path d="M123 174L105 156" stroke="#ED4C42" stroke-width="6" stroke-linecap="round" stroke-linejoin="round"/>
<path d="M123 120L105 102" stroke="#ED4C42" stroke-width="6" stroke-linecap="round" stroke-linejoin="round"/>
</g>
<defs>
<filter id="filter0_f_11_1991" x="218.635" y="153.767" width="11.7583" height="19.9012" filterUnits="userSpaceOnUse" color-interpolation-filters="sRGB">
<feFlood flood-opacity="0" result="BackgroundImageFix"/>
<feBlend mode="normal" in="SourceGraphic" in2="BackgroundImageFix" result="shape"/>
<feGaussianBlur stdDeviation="1.78125" result="effect1_foregroundBlur_11_1991"/>
</filter>
<filter id="filter1_f_11_1991" x="210.415" y="151.39" width="7.16986" height="4.15552" filterUnits="userSpaceOnUse" color-interpolation-filters="sRGB">
<feFlood flood-opacity="0" result="BackgroundImageFix"/>
<feBlend mode="normal" in="SourceGraphic" in2="BackgroundImageFix" result="shape"/>
<feGaussianBlur stdDeviation="0.890625" result="effect1_foregroundBlur_11_1991"/>
</filter>
<filter id="filter2_f_11_1991" x="208.637" y="150.179" width="15.7117" height="25.9558" filterUnits="userSpaceOnUse" color-interpolation-filters="sRGB">
<feFlood flood-opacity="0" result="BackgroundImageFix"/>
<feBlend mode="normal" in="SourceGraphic" in2="BackgroundImageFix" result="shape"/>
<feGaussianBlur stdDeviation="1.78125" result="effect1_foregroundBlur_11_1991"/>
</filter>
<filter id="filter3_f_11_1991" x="220.681" y="150.402" width="19.7766" height="20.7574" filterUnits="userSpaceOnUse" color-interpolation-filters="sRGB">
<feFlood flood-opacity="0" result="BackgroundImageFix"/>
<feBlend mode="normal" in="SourceGraphic" in2="BackgroundImageFix" result="shape"/>
<feGaussianBlur stdDeviation="1.78125" result="effect1_foregroundBlur_11_1991"/>
</filter>
<filter id="filter4_f_11_1991" x="220.542" y="159.807" width="18.4813" height="20.1877" filterUnits="userSpaceOnUse" color-interpolation-filters="sRGB">
<feFlood flood-opacity="0" result="BackgroundImageFix"/>
<feBlend mode="normal" in="SourceGraphic" in2="BackgroundImageFix" result="shape"/>
<feGaussianBlur stdDeviation="1.78125" result="effect1_foregroundBlur_11_1991"/>
</filter>
<filter id="filter5_f_11_1991" x="204.214" y="157.58" width="20.4846" height="22.7112" filterUnits="userSpaceOnUse" color-interpolation-filters="sRGB">
<feFlood flood-opacity="0" result="BackgroundImageFix"/>
<feBlend mode="normal" in="SourceGraphic" in2="BackgroundImageFix" result="shape"/>
<feGaussianBlur stdDeviation="1.78125" result="effect1_foregroundBlur_11_1991"/>
</filter>
<linearGradient id="paint0_linear_11_1991" x1="195" y1="128" x2="195" y2="384" gradientUnits="userSpaceOnUse">
<stop stop-color="#151515" stop-opacity="0"/>
<stop offset="1" stop-color="#1C1C1E"/>
</linearGradient>
<radialGradient id="paint1_radial_11_1991" cx="0" cy="0" r="1" gradientUnits="userSpaceOnUse" gradientTransform="translate(220.678 157.58) rotate(90) scale(27.9063 70.0008)">
<stop offset="0.114" stop-color="#FFD765"/>
<stop offset="1" stop-color="#FF8040"/>
</radialGradient>
<radialGradient id="paint2_radial_11_1991" cx="0" cy="0" r="1" gradientUnits="userSpaceOnUse" gradientTransform="translate(232.344 156.468) rotate(116.407) scale(12.0154 11.1786)">
<stop stop-color="#FFD765"/>
<stop offset="1" stop-color="#FFD765" stop-opacity="0"/>
</radialGradient>
<linearGradient id="paint3_linear_11_1991" x1="219.174" y1="165.411" x2="208.486" y2="176.914" gradientUnits="userSpaceOnUse">
<stop offset="0.402" stop-color="#ED7839" stop-opacity="0"/>
<stop offset="1" stop-color="#ED7839"/>
</linearGradient>
<radialGradient id="paint4_radial_11_1991" cx="0" cy="0" r="1" gradientUnits="userSpaceOnUse" gradientTransform="translate(230.128 159.494) rotate(129.54) scale(27.0651 50.6958)">
<stop offset="0.798" stop-color="#FF69CF" stop-opacity="0"/>
<stop offset="0.908" stop-color="#FF69CF"/>
</radialGradient>
<radialGradient id="paint5_radial_11_1991" cx="0" cy="0" r="1" gradientUnits="userSpaceOnUse" gradientTransform="translate(223.585 166.932) rotate(-154.151) scale(26.5554 32.3103)">
<stop offset="0.586" stop-color="#9B7C23" stop-opacity="0"/>
<stop offset="1" stop-color="#9B7C23"/>
</radialGradient>
<radialGradient id="paint6_radial_11_1991" cx="0" cy="0" r="1" gradientUnits="userSpaceOnUse" gradientTransform="translate(223.586 166.933) rotate(-152.113) scale(21.5803 19.0872)">
<stop offset="0.915" stop-color="#9B7C23" stop-opacity="0"/>
<stop offset="1" stop-color="#9B7C23"/>
</radialGradient>
<radialGradient id="paint7_radial_11_1991" cx="0" cy="0" r="1" gradientUnits="userSpaceOnUse" gradientTransform="translate(221.264 162.406) rotate(90) scale(23.5116 31.383)">
<stop offset="0.671" stop-color="#FF69CF" stop-opacity="0"/>
<stop offset="0.934" stop-color="#FF69CF"/>
</radialGradient>
<radialGradient id="paint8_radial_11_1991" cx="0" cy="0" r="1" gradientUnits="userSpaceOnUse" gradientTransform="translate(215.199 157.135) rotate(44.2476) scale(27.9745 77.9111)">
<stop offset="0.777" stop-color="#FF69CF" stop-opacity="0"/>
<stop offset="1" stop-color="#FF69CF"/>
</radialGradient>
<linearGradient id="paint9_linear_11_1991" x1="222.621" y1="161.44" x2="220.678" y2="181.552" gradientUnits="userSpaceOnUse">
<stop offset="0.512" stop-color="#FF7AF2" stop-opacity="0"/>
<stop offset="0.934" stop-color="#FF7AF2"/>
</linearGradient>
<radialGradient id="paint10_radial_11_1991" cx="0" cy="0" r="1" gradientUnits="userSpaceOnUse" gradientTransform="translate(228.897 164.473) rotate(-59.6724) scale(17.1971 16.1286)">
<stop offset="0.672" stop-color="#F9861D" stop-opacity="0"/>
<stop offset="1" stop-color="#FEA16F"/>
</radialGradient>
<radialGradient id="paint11_radial_11_1991" cx="0" cy="0" r="1" gradientUnits="userSpaceOnUse" gradientTransform="translate(231.346 161.429) rotate(-130.441) scale(12.4716 12.6787)">
<stop offset="0.657" stop-color="#C5A34C" stop-opacity="0"/>
<stop offset="0.906" stop-color="#C5A34C"/>
</radialGradient>
<radialGradient id="paint12_radial_11_1991" cx="0" cy="0" r="1" gradientUnits="userSpaceOnUse" gradientTransform="translate(224.893 158.101) rotate(90) scale(21.0039 6.86212)">
<stop offset="0.718" stop-color="#FFBF2B"/>
<stop offset="1" stop-color="#FFBF2B" stop-opacity="0"/>
</radialGradient>
<radialGradient id="paint13_radial_11_1991" cx="0" cy="0" r="1" gradientUnits="userSpaceOnUse" gradientTransform="translate(218.225 153.251) rotate(-176.498) scale(4.81482 1.98366)">
<stop stop-color="#FFE647"/>
<stop offset="1" stop-color="#FFE647" stop-opacity="0"/>
</radialGradient>
<radialGradient id="paint14_radial_11_1991" cx="0" cy="0" r="1" gradientUnits="userSpaceOnUse" gradientTransform="translate(226.554 157.877) rotate(-135.564) scale(16.0074 45.1473)">
<stop stop-color="#FFE647"/>
<stop offset="1" stop-color="#FFE647" stop-opacity="0"/>
</radialGradient>
<radialGradient id="paint15_radial_11_1991" cx="0" cy="0" r="1" gradientUnits="userSpaceOnUse" gradientTransform="translate(233.678 153.964) rotate(126.781) scale(9.39668 15.1216)">
<stop stop-color="#FFE647"/>
<stop offset="1" stop-color="#FFE647" stop-opacity="0"/>
</radialGradient>
<clipPath id="clip0_11_1991">
<rect width="390" height="384" fill="white"/>
</clipPath>
</defs>
</svg>
