<svg width="32" height="32" viewBox="0 0 32 32" fill="none" xmlns="http://www.w3.org/2000/svg">
<path d="M28.1066 9.33332C27.8762 8.93415 27.5463 8.6015 27.1491 8.36782C26.7518 8.13414 26.3008 8.00741 25.84 7.99999H8.77329L7.99996 4.98666C7.92183 4.69577 7.74751 4.43991 7.5054 4.26075C7.26328 4.08159 6.96764 3.98968 6.66663 3.99999H3.99996C3.64634 3.99999 3.3072 4.14046 3.05715 4.39051C2.8071 4.64056 2.66663 4.9797 2.66663 5.33332C2.66663 5.68694 2.8071 6.02608 3.05715 6.27613C3.3072 6.52618 3.64634 6.66666 3.99996 6.66666H5.65329L9.33329 20.3467C9.41143 20.6375 9.58574 20.8934 9.82786 21.0726C10.07 21.2517 10.3656 21.3436 10.6666 21.3333H22.6666C22.9128 21.3326 23.1541 21.2637 23.3635 21.1342C23.573 21.0048 23.7425 20.8199 23.8533 20.6L28.2266 11.8533C28.4162 11.456 28.5044 11.0179 28.4835 10.5782C28.4625 10.1385 28.3331 9.71083 28.1066 9.33332Z" fill="black"/>
<path d="M10 28C11.1046 28 12 27.1046 12 26C12 24.8954 11.1046 24 10 24C8.89543 24 8 24.8954 8 26C8 27.1046 8.89543 28 10 28Z" fill="black"/>
<path d="M23.3334 28C24.4379 28 25.3334 27.1046 25.3334 26C25.3334 24.8954 24.4379 24 23.3334 24C22.2288 24 21.3334 24.8954 21.3334 26C21.3334 27.1046 22.2288 28 23.3334 28Z" fill="black"/>
</svg>
