<svg width="180" height="180" viewBox="0 0 180 180" fill="none" xmlns="http://www.w3.org/2000/svg">
<path d="M75.7588 16.5813C83.2253 7.80624 96.7747 7.80624 104.241 16.5813L108.914 22.0732C112.809 26.6505 118.666 29.0767 124.657 28.5941L131.845 28.015C143.329 27.0898 152.91 36.6707 151.985 48.1552L151.406 55.3429C150.923 61.3335 153.35 67.191 157.927 71.0857L163.419 75.7588C172.194 83.2253 172.194 96.7747 163.419 104.241L157.927 108.914C153.35 112.809 150.923 118.666 151.406 124.657L151.985 131.845C152.91 143.329 143.329 152.91 131.845 151.985L124.657 151.406C118.666 150.923 112.809 153.35 108.914 157.927L104.241 163.419C96.7747 172.194 83.2253 172.194 75.7588 163.419L71.0857 157.927C67.191 153.35 61.3335 150.923 55.3429 151.406L48.1552 151.985C36.6706 152.91 27.0898 143.329 28.015 131.845L28.5941 124.657C29.0767 118.666 26.6505 112.809 22.0732 108.914L16.5813 104.241C7.80624 96.7747 7.80624 83.2253 16.5813 75.7588L22.0732 71.0857C26.6505 67.191 29.0767 61.3335 28.5941 55.3429L28.0151 48.1552C27.0898 36.6706 36.6707 27.0898 48.1552 28.0151L55.3429 28.5941C61.3335 29.0767 67.191 26.6505 71.0857 22.0732L75.7588 16.5813Z" fill="url(#paint0_linear_8_2251)"/>
<path d="M75.7588 16.5813C83.2253 7.80624 96.7747 7.80624 104.241 16.5813L108.914 22.0732C112.809 26.6505 118.666 29.0767 124.657 28.5941L131.845 28.015C143.329 27.0898 152.91 36.6707 151.985 48.1552L151.406 55.3429C150.923 61.3335 153.35 67.191 157.927 71.0857L163.419 75.7588C172.194 83.2253 172.194 96.7747 163.419 104.241L157.927 108.914C153.35 112.809 150.923 118.666 151.406 124.657L151.985 131.845C152.91 143.329 143.329 152.91 131.845 151.985L124.657 151.406C118.666 150.923 112.809 153.35 108.914 157.927L104.241 163.419C96.7747 172.194 83.2253 172.194 75.7588 163.419L71.0857 157.927C67.191 153.35 61.3335 150.923 55.3429 151.406L48.1552 151.985C36.6706 152.91 27.0898 143.329 28.015 131.845L28.5941 124.657C29.0767 118.666 26.6505 112.809 22.0732 108.914L16.5813 104.241C7.80624 96.7747 7.80624 83.2253 16.5813 75.7588L22.0732 71.0857C26.6505 67.191 29.0767 61.3335 28.5941 55.3429L28.0151 48.1552C27.0898 36.6706 36.6707 27.0898 48.1552 28.0151L55.3429 28.5941C61.3335 29.0767 67.191 26.6505 71.0857 22.0732L75.7588 16.5813Z" fill="#8F00FF"/>
<path fill-rule="evenodd" clip-rule="evenodd" d="M123.544 67.5934C126.03 70.1033 126.009 74.1526 123.5 76.6377L87.3284 112.452C84.8361 114.919 80.8213 114.919 78.329 112.452L59.5001 93.8088C56.9902 91.3236 56.9701 87.2744 59.4553 84.7645C61.9404 82.2546 65.9896 82.2345 68.4995 84.7196L82.8287 98.9072L114.5 67.5485C117.01 65.0634 121.059 65.0835 123.544 67.5934Z" fill="url(#paint1_linear_8_2251)"/>
<defs>
<linearGradient id="paint0_linear_8_2251" x1="144.538" y1="29.3934" x2="44.6736" y2="148.352" gradientUnits="userSpaceOnUse">
<stop stop-color="#28C0FF"/>
<stop offset="1" stop-color="#283EFF"/>
</linearGradient>
<linearGradient id="paint1_linear_8_2251" x1="91.4999" y1="72.0931" x2="5.49986" y2="209.5" gradientUnits="userSpaceOnUse">
<stop stop-color="white"/>
<stop offset="1" stop-color="white" stop-opacity="0"/>
</linearGradient>
</defs>
</svg>
