<svg width="269" height="155" viewBox="0 0 269 155" fill="none" xmlns="http://www.w3.org/2000/svg">
<path d="M24.0641 65.6651C37.8654 65.6651 45.9103 59.1113 45.9103 48.8123C45.9103 40.698 40.8476 36.2941 30.0978 34.3522L25.0697 33.4507C20.0763 32.5491 17.9264 31.4741 17.9264 29.2201C17.9264 26.9661 20.007 25.163 24.0988 25.163C27.2544 25.163 29.5777 26.0992 31.2075 28.5959C32.976 31.266 34.9526 32.341 38.0734 32.341C41.7492 32.3063 44.1765 30.0524 44.1765 26.7234C44.1765 25.5791 43.9684 24.6428 43.5523 23.6372C40.9516 17.3954 33.8429 13.8931 23.9254 13.8931C12.0314 13.8931 3.36225 20.2389 3.36225 30.2951C3.36225 38.0626 8.80646 43.0907 18.7586 44.8592L23.7867 45.7608C29.4043 46.7664 31.3462 47.7721 31.3462 50.1301C31.3462 52.5921 28.6414 54.3953 24.2375 54.3953C20.9432 54.3953 18.0304 53.3896 16.2966 50.9276C14.32 48.1535 12.4475 47.2866 9.67338 47.2866C6.03234 47.2866 3.36225 49.7139 3.36225 53.2509C3.36225 54.3953 3.60499 55.5743 4.12514 56.7186C6.27508 61.608 12.7943 65.6651 24.0641 65.6651ZM58.06 65.6651C62.1519 65.6651 64.4752 63.2031 64.4752 58.8685V35.8087H64.7526L74.7048 60.8798C75.6757 63.3765 77.3749 64.5555 80.0103 64.5555C82.611 64.5555 84.2061 63.4112 85.2117 60.8798L95.1639 35.8087H95.4413V58.8685C95.4413 63.2031 97.7646 65.6651 101.856 65.6651C105.948 65.6651 108.272 63.2031 108.272 58.8685V23.5332C108.272 17.3608 104.873 13.8931 98.7356 13.8931C93.5688 13.8931 90.8293 15.939 88.7488 21.3832L80.1143 43.9576H79.8369L71.1678 21.3832C69.0872 15.939 66.3477 13.8931 61.1809 13.8931C55.0432 13.8931 51.6449 17.3608 51.6449 23.5332V58.8685C51.6449 63.2031 53.9682 65.6651 58.06 65.6651ZM139.493 65.6651C154.959 65.6651 164.703 55.7823 164.703 39.7965C164.703 23.8106 154.959 13.8931 139.493 13.8931C124.028 13.8931 114.284 23.8106 114.284 39.7965C114.284 55.7823 123.993 65.6651 139.493 65.6651ZM139.493 53.9445C133.321 53.9445 129.264 48.4309 129.264 39.7965C129.264 31.1273 133.356 25.6138 139.493 25.6138C145.631 25.6138 149.723 31.1273 149.723 39.7965C149.723 48.4309 145.666 53.9445 139.493 53.9445ZM178.032 65.6651C182.713 65.6651 185.383 62.891 185.383 57.9669V51.6905L189.753 47.1826L200.988 61.4346C203.38 64.4861 205.53 65.6651 208.686 65.6651C212.708 65.6651 215.76 62.5789 215.76 58.5564C215.76 56.4759 214.685 54.2566 212.154 51.1357L201.335 37.7505L211.668 26.7234C213.749 24.5041 214.512 22.909 214.512 20.6897C214.512 16.91 211.391 13.8931 207.542 13.8931C205.045 13.8931 203.138 14.864 201.022 17.222L185.661 34.595H185.383V21.5913C185.383 16.6672 182.713 13.8931 178.032 13.8931C173.351 13.8931 170.681 16.6672 170.681 21.5913V57.9669C170.681 62.891 173.351 65.6651 178.032 65.6651ZM243.098 65.6651C247.779 65.6651 250.449 62.891 250.449 57.9669V48.9511L264.771 25.9605C265.811 24.2961 266.331 22.5969 266.331 20.8284C266.331 16.8406 263.245 13.8931 259.049 13.8931C256.102 13.8931 254.16 15.2802 252.287 18.7131L243.41 35.0458H243.133L234.29 18.7478C232.314 15.1068 230.58 13.8931 227.355 13.8931C223.02 13.8931 219.865 16.8753 219.865 20.9671C219.865 22.6663 220.385 24.4001 221.391 26.0299L235.747 48.9511V57.9669C235.747 62.891 238.417 65.6651 243.098 65.6651ZM70.8904 141.665C74.8782 141.665 77.0974 139.619 78.4845 134.591L79.3514 131.436H95.6494L96.5163 134.834C97.7646 139.689 100.019 141.665 104.353 141.665C108.618 141.665 111.705 138.683 111.705 134.522C111.705 132.927 111.427 131.54 110.734 129.632L99.4291 98.7009C97.1751 92.5285 93.5688 89.8931 87.2923 89.8931C81.432 89.8931 77.791 92.6325 75.641 98.7009L64.4405 129.632C63.7817 131.401 63.4002 133.273 63.4002 134.556C63.4002 138.995 66.209 141.665 70.8904 141.665ZM82.1255 120.478L87.0843 102.307H87.3617L92.5632 120.478H82.1255ZM125.241 141.665C129.923 141.665 132.593 138.891 132.593 133.967V127.136H139.736C151.422 127.136 159.363 120.027 159.363 109C159.363 97.8687 151.873 90.76 140.742 90.76H125.241C120.56 90.76 117.89 93.5341 117.89 98.4582V133.967C117.89 138.891 120.56 141.665 125.241 141.665ZM132.593 116.282V101.822H136.823C141.609 101.822 144.522 104.284 144.522 109.035C144.522 113.82 141.609 116.282 136.719 116.282H132.593ZM172.172 141.665C176.853 141.665 179.523 138.891 179.523 133.967V127.136H186.666C198.352 127.136 206.293 120.027 206.293 109C206.293 97.8687 198.803 90.76 187.672 90.76H172.172C167.49 90.76 164.82 93.5341 164.82 98.4582V133.967C164.82 138.891 167.49 141.665 172.172 141.665ZM179.523 116.282V101.822H183.754C188.539 101.822 191.452 104.284 191.452 109.035C191.452 113.82 188.539 116.282 183.65 116.282H179.523Z" fill="white"/>
<circle cx="216" cy="134" r="7" fill="#8F00FF"/>
</svg>
