<svg width="18" height="18" viewBox="0 0 18 18" fill="none" xmlns="http://www.w3.org/2000/svg">
<path fill-rule="evenodd" clip-rule="evenodd" d="M10.5355 3.96447C12.4882 5.91709 12.4882 9.08291 10.5355 11.0355C8.58291 12.9882 5.41709 12.9882 3.46447 11.0355C1.51184 9.08291 1.51184 5.91709 3.46447 3.96447C5.41709 2.01184 8.58291 2.01184 10.5355 3.96447ZM12.6053 11.6945C14.6624 8.95253 14.4439 5.04443 11.9497 2.55025C9.21608 -0.183418 4.78392 -0.183418 2.05025 2.55025C-0.683418 5.28392 -0.683417 9.71608 2.05025 12.4497C4.54446 14.944 8.45261 15.1624 11.1945 13.1052C11.2099 13.1228 11.2259 13.14 11.2427 13.1568L15.4853 17.3995C15.8758 17.79 16.509 17.79 16.8995 17.3995C17.29 17.0089 17.29 16.3758 16.8995 15.9852L12.6569 11.7426C12.6401 11.7258 12.6229 11.7098 12.6053 11.6945Z" fill="white"/>
</svg>
